<svg width="23" height="19" viewBox="0 0 23 19" fill="none" xmlns="http://www.w3.org/2000/svg">
    <path
        d="M22.1249 9.18323C22.1237 8.20526 21.8399 7.24849 21.3076 6.42802C20.7754 5.60756 20.0174 4.95836 19.1249 4.55854V4.30823C19.124 3.35663 18.8083 2.43207 18.2271 1.67859C17.6459 0.925104 16.8318 0.38501 15.9117 0.142452C14.9915 -0.100107 14.017 -0.0315079 13.1399 0.337561C12.2628 0.70663 11.5323 1.35544 11.0624 2.18292C10.5925 1.35544 9.86211 0.70663 8.98501 0.337561C8.1079 -0.0315079 7.13335 -0.100107 6.21319 0.142452C5.29303 0.38501 4.47893 0.925104 3.89773 1.67859C3.31654 2.43207 3.00088 3.35663 2.99993 4.30823V4.55854C2.10673 4.95702 1.34808 5.60571 0.815699 6.42618C0.283317 7.24664 0 8.20376 0 9.18182C0 10.1599 0.283317 11.117 0.815699 11.9375C1.34808 12.7579 2.10673 13.4066 2.99993 13.8051V14.0582C3.00088 15.0098 3.31654 15.9344 3.89773 16.6879C4.47893 17.4414 5.29303 17.9814 6.21319 18.224C7.13335 18.4666 8.1079 18.398 8.98501 18.0289C9.86211 17.6598 10.5925 17.011 11.0624 16.1835C11.5323 17.011 12.2628 17.6598 13.1399 18.0289C14.017 18.398 14.9915 18.4666 15.9117 18.224C16.8318 17.9814 17.6459 17.4414 18.2271 16.6879C18.8083 15.9344 19.124 15.0098 19.1249 14.0582V13.8051C20.0174 13.4061 20.7755 12.7574 21.3078 11.9374C21.8401 11.1173 22.1238 10.1609 22.1249 9.18323ZM7.31243 17.2457C6.484 17.2461 5.68795 16.924 5.09295 16.3475C4.49796 15.7711 4.15076 14.9856 4.12493 14.1576C4.43399 14.2162 4.74787 14.2457 5.06244 14.2457H5.81244C5.96162 14.2457 6.10469 14.1865 6.21018 14.081C6.31567 13.9755 6.37493 13.8324 6.37493 13.6832C6.37493 13.534 6.31567 13.391 6.21018 13.2855C6.10469 13.18 5.96162 13.1207 5.81244 13.1207H5.06244C4.13303 13.1215 3.23332 12.7935 2.5225 12.1947C1.81167 11.5959 1.33557 10.765 1.17843 9.84897C1.02129 8.93295 1.19324 7.99087 1.66385 7.18942C2.13447 6.38798 2.87342 5.77884 3.74993 5.46979C3.85965 5.431 3.95464 5.35913 4.0218 5.2641C4.08896 5.16906 4.125 5.05554 4.12493 4.93917V4.30823C4.12493 3.46285 4.46076 2.6521 5.05853 2.05432C5.6563 1.45655 6.46706 1.12073 7.31243 1.12073C8.15781 1.12073 8.96857 1.45655 9.56634 2.05432C10.1641 2.6521 10.4999 3.46285 10.4999 4.30823V11.1567C10.0965 10.7121 9.60445 10.3569 9.05549 10.1139C8.50652 9.87091 7.91278 9.74549 7.31243 9.74573C7.16325 9.74573 7.02018 9.80499 6.91469 9.91048C6.8092 10.016 6.74993 10.159 6.74993 10.3082C6.74993 10.4574 6.8092 10.6005 6.91469 10.706C7.02018 10.8115 7.16325 10.8707 7.31243 10.8707C8.15781 10.8707 8.96857 11.2066 9.56634 11.8043C10.1641 12.4021 10.4999 13.2129 10.4999 14.0582C10.4999 14.9036 10.1641 15.7144 9.56634 16.3121C8.96857 16.9099 8.15781 17.2457 7.31243 17.2457ZM17.0624 13.1207H16.3124C16.1632 13.1207 16.0202 13.18 15.9147 13.2855C15.8092 13.391 15.7499 13.534 15.7499 13.6832C15.7499 13.8324 15.8092 13.9755 15.9147 14.081C16.0202 14.1865 16.1632 14.2457 16.3124 14.2457H17.0624C17.377 14.2457 17.6909 14.2162 17.9999 14.1576C17.9804 14.7834 17.777 15.3896 17.4151 15.9006C17.0532 16.4115 16.5488 16.8046 15.965 17.0307C15.3811 17.2568 14.7435 17.3059 14.1319 17.1719C13.5203 17.0379 12.9617 16.7268 12.5258 16.2773C12.0899 15.8278 11.796 15.2599 11.6809 14.6444C11.5657 14.029 11.6344 13.3932 11.8783 12.8166C12.1222 12.2399 12.5305 11.7478 13.0523 11.4018C13.5741 11.0557 14.1863 10.871 14.8124 10.8707C14.9616 10.8707 15.1047 10.8115 15.2102 10.706C15.3157 10.6005 15.3749 10.4574 15.3749 10.3082C15.3749 10.159 15.3157 10.016 15.2102 9.91048C15.1047 9.80499 14.9616 9.74573 14.8124 9.74573C14.2121 9.74549 13.6183 9.87091 13.0694 10.1139C12.5204 10.3569 12.0284 10.7121 11.6249 11.1567V4.30823C11.6249 3.46285 11.9608 2.6521 12.5585 2.05432C13.1563 1.45655 13.9671 1.12073 14.8124 1.12073C15.6578 1.12073 16.4686 1.45655 17.0663 2.05432C17.6641 2.6521 17.9999 3.46285 17.9999 4.30823V4.93917C17.9999 5.05554 18.0359 5.16906 18.1031 5.2641C18.1702 5.35913 18.2652 5.431 18.3749 5.46979C19.2515 5.77884 19.9904 6.38798 20.461 7.18942C20.9316 7.99087 21.1036 8.93295 20.9464 9.84897C20.7893 10.765 20.3132 11.5959 19.6024 12.1947C18.8916 12.7935 17.9918 13.1215 17.0624 13.1207ZM18.3749 8.05823C18.3749 8.20741 18.3157 8.35049 18.2102 8.45597C18.1047 8.56146 17.9616 8.62073 17.8124 8.62073H17.4374C16.5921 8.62073 15.7813 8.2849 15.1835 7.68713C14.5858 7.08936 14.2499 6.27861 14.2499 5.43323V5.05823C14.2499 4.90904 14.3092 4.76597 14.4147 4.66048C14.5202 4.55499 14.6633 4.49573 14.8124 4.49573C14.9616 4.49573 15.1047 4.55499 15.2102 4.66048C15.3157 4.76597 15.3749 4.90904 15.3749 5.05823V5.43323C15.3749 5.98024 15.5922 6.50484 15.979 6.89164C16.3658 7.27843 16.8904 7.49573 17.4374 7.49573H17.8124C17.9616 7.49573 18.1047 7.55499 18.2102 7.66048C18.3157 7.76597 18.3749 7.90904 18.3749 8.05823ZM4.68744 8.62073H4.31243C4.16325 8.62073 4.02018 8.56146 3.91469 8.45597C3.8092 8.35049 3.74993 8.20741 3.74993 8.05823C3.74993 7.90904 3.8092 7.76597 3.91469 7.66048C4.02018 7.55499 4.16325 7.49573 4.31243 7.49573H4.68744C5.23444 7.49573 5.75905 7.27843 6.14584 6.89164C6.53264 6.50484 6.74993 5.98024 6.74993 5.43323V5.05823C6.74993 4.90904 6.8092 4.76597 6.91469 4.66048C7.02018 4.55499 7.16325 4.49573 7.31243 4.49573C7.46162 4.49573 7.60469 4.55499 7.71018 4.66048C7.81567 4.76597 7.87493 4.90904 7.87493 5.05823V5.43323C7.87493 6.27861 7.53911 7.08936 6.94134 7.68713C6.34357 8.2849 5.53281 8.62073 4.68744 8.62073Z"
        fill="#CCFF00" />
</svg>